<svg width="3698" height="1888" xmlns="http://www.w3.org/2000/svg" xmlns:xlink="http://www.w3.org/1999/xlink" xml:space="preserve" overflow="hidden"><g transform="translate(-1077 18)"><g><path d="M3428.43 216.146 3428.43 1866.14" stroke="#000000" stroke-width="4.58333" stroke-linecap="butt" stroke-linejoin="round" stroke-miterlimit="10" stroke-opacity="1" fill="none" fill-rule="evenodd"/><path d="M3875.94 216.146 3875.94 1866.14" stroke="#000000" stroke-width="4.58333" stroke-linecap="butt" stroke-linejoin="round" stroke-miterlimit="10" stroke-opacity="1" fill="none" fill-rule="evenodd"/><path d="M4323.45 216.146 4323.45 1866.14" stroke="#000000" stroke-width="4.58333" stroke-linecap="butt" stroke-linejoin="round" stroke-miterlimit="10" stroke-opacity="1" fill="none" fill-rule="evenodd"/><path d="M2980.92 628.646 4770.96 628.646" stroke="#000000" stroke-width="4.58333" stroke-linecap="butt" stroke-linejoin="round" stroke-miterlimit="10" stroke-opacity="1" fill="none" fill-rule="evenodd"/><path d="M2980.92 1041.15 4770.96 1041.15" stroke="#000000" stroke-width="4.58333" stroke-linecap="butt" stroke-linejoin="round" stroke-miterlimit="10" stroke-opacity="1" fill="none" fill-rule="evenodd"/><path d="M2980.92 1453.64 4770.96 1453.64" stroke="#000000" stroke-width="4.58333" stroke-linecap="butt" stroke-linejoin="round" stroke-miterlimit="10" stroke-opacity="1" fill="none" fill-rule="evenodd"/><g><text fill="#000000" fill-opacity="1" font-family="Arial,Arial_MSFontService,sans-serif" font-style="normal" font-variant="normal" font-weight="400" font-stretch="normal" font-size="165" text-anchor="start" direction="ltr" writing-mode="lr-tb" unicode-bidi="normal" text-decoration="none" transform="matrix(1 0 0 1 4356.45 1630)">M</text></g><text fill="#000000" fill-opacity="1" font-family="Arial,Arial_MSFontService,sans-serif" font-style="normal" font-variant="normal" font-weight="400" font-stretch="normal" font-size="110" text-anchor="start" direction="ltr" writing-mode="lr-tb" unicode-bidi="normal" text-decoration="none" transform="matrix(1 0 0 1 4493.95 1580)">t+</text><text fill="#000000" fill-opacity="1" font-family="Cambria Math,Cambria Math_MSFontService,sans-serif" font-style="normal" font-variant="normal" font-weight="400" font-stretch="normal" font-size="110" text-anchor="start" direction="ltr" writing-mode="lr-tb" unicode-bidi="normal" text-decoration="none" transform="matrix(1 0 0 1 4588.48 1580)">𝝙</text><text fill="#000000" fill-opacity="1" font-family="Arial,Arial_MSFontService,sans-serif" font-style="normal" font-variant="normal" font-weight="400" font-stretch="normal" font-size="110" text-anchor="start" direction="ltr" writing-mode="lr-tb" unicode-bidi="normal" text-decoration="none" transform="matrix(1 0 0 1 4659.52 1580)">t</text><path d="M3.33091e-05-5.15625 111.732-5.15553 111.732 5.15697-3.33091e-05 5.15625ZM-9.99273e-05 15.4688C-8.54326 15.4687-15.4688 8.54306-15.4688-9.99273e-05-15.4687-8.54326-8.54306-15.4688 9.99273e-05-15.4688 8.54326-15.4687 15.4688-8.54306 15.4688 9.99273e-05 15.4687 8.54326 8.54306 15.4688-9.99273e-05 15.4688Z" fill="#000000" fill-rule="nonzero" fill-opacity="1" transform="matrix(1 0 0 -1 3876 1260)"/><path d="M3.33091e-05-5.15625 111.732-5.15553 111.732 5.15697-3.33091e-05 5.15625ZM-9.99273e-05 15.4688C-8.54326 15.4687-15.4688 8.54306-15.4688-9.99273e-05-15.4687-8.54326-8.54306-15.4688 9.99273e-05-15.4688 8.54326-15.4687 15.4688-8.54306 15.4688 9.99273e-05 15.4687 8.54326 8.54306 15.4688-9.99273e-05 15.4688Z" fill="#000000" fill-rule="nonzero" fill-opacity="1" transform="matrix(1 0 0 -1 3986 1260)"/><path d="M3.33091e-05-5.15625 111.732-5.15553 111.732 5.15697-3.33091e-05 5.15625ZM-9.99273e-05 15.4688C-8.54326 15.4687-15.4688 8.54306-15.4688-9.99273e-05-15.4687-8.54326-8.54306-15.4688 9.99273e-05-15.4688 8.54326-15.4687 15.4688-8.54306 15.4688 9.99273e-05 15.4687 8.54326 8.54306 15.4688-9.99273e-05 15.4688Z" fill="#000000" fill-rule="nonzero" fill-opacity="1" transform="matrix(1 0 0 -1 3656 1260)"/><path d="M3.33091e-05-5.15625 111.732-5.15553 111.732 5.15697-3.33091e-05 5.15625ZM-9.99273e-05 15.4688C-8.54326 15.4687-15.4688 8.54306-15.4688-9.99273e-05-15.4687-8.54326-8.54306-15.4688 9.99273e-05-15.4688 8.54326-15.4687 15.4688-8.54306 15.4688 9.99273e-05 15.4687 8.54326 8.54306 15.4688-9.99273e-05 15.4688Z" fill="#000000" fill-rule="nonzero" fill-opacity="1" transform="matrix(1 0 0 -1 3766 1260)"/><path d="M3.33091e-05-5.15625 111.732-5.15553 111.732 5.15697-3.33091e-05 5.15625ZM-9.99273e-05 15.4688C-8.54326 15.4687-15.4688 8.54306-15.4688-9.99273e-05-15.4687-8.54326-8.54306-15.4688 9.99273e-05-15.4688 8.54326-15.4687 15.4688-8.54306 15.4688 9.99273e-05 15.4687 8.54326 8.54306 15.4688-9.99273e-05 15.4688Z" fill="#000000" fill-rule="nonzero" fill-opacity="1" transform="matrix(-1.83697e-16 -1 -1 1.83697e-16 3655 1040.73)"/><path d="M3.33091e-05-5.15625 111.732-5.15553 111.732 5.15697-3.33091e-05 5.15625ZM-9.99273e-05 15.4688C-8.54326 15.4687-15.4688 8.54306-15.4688-9.99273e-05-15.4687-8.54326-8.54306-15.4688 9.99273e-05-15.4688 8.54326-15.4687 15.4688-8.54306 15.4688 9.99273e-05 15.4687 8.54326 8.54306 15.4688-9.99273e-05 15.4688Z" fill="#000000" fill-rule="nonzero" fill-opacity="1" transform="matrix(-1.83697e-16 -1 -1 1.83697e-16 3655 930.732)"/><path d="M3.33091e-05-5.15625 111.732-5.15553 111.732 5.15697-3.33091e-05 5.15625ZM-9.99273e-05 15.4688C-8.54326 15.4687-15.4688 8.54306-15.4688-9.99273e-05-15.4687-8.54326-8.54306-15.4688 9.99273e-05-15.4688 8.54326-15.4687 15.4688-8.54306 15.4688 9.99273e-05 15.4687 8.54326 8.54306 15.4688-9.99273e-05 15.4688Z" fill="#000000" fill-rule="nonzero" fill-opacity="1" transform="matrix(-1.83697e-16 -1 -1 1.83697e-16 3655 1261.73)"/><path d="M3.33091e-05-5.15625 111.732-5.15553 111.732 5.15697-3.33091e-05 5.15625ZM-9.99273e-05 15.4688C-8.54326 15.4687-15.4688 8.54306-15.4688-9.99273e-05-15.4687-8.54326-8.54306-15.4688 9.99273e-05-15.4688 8.54326-15.4687 15.4688-8.54306 15.4688 9.99273e-05 15.4687 8.54326 8.54306 15.4688-9.99273e-05 15.4688Z" fill="#000000" fill-rule="nonzero" fill-opacity="1" transform="matrix(-1.83697e-16 -1 -1 1.83697e-16 3655 1151.73)"/><path d="M3.33091e-05-5.15625 111.732-5.15553 111.732 5.15697-3.33091e-05 5.15625ZM-9.99273e-05 15.4688C-8.54326 15.4687-15.4688 8.54306-15.4688-9.99273e-05-15.4687-8.54326-8.54306-15.4688 9.99273e-05-15.4688 8.54326-15.4687 15.4688-8.54306 15.4688 9.99273e-05 15.4687 8.54326 8.54306 15.4688-9.99273e-05 15.4688Z" fill="#000000" fill-rule="nonzero" fill-opacity="1" transform="matrix(1 0 0 -1 3875 817.001)"/><path d="M3.33091e-05-5.15625 111.732-5.15553 111.732 5.15697-3.33091e-05 5.15625ZM-9.99273e-05 15.4688C-8.54326 15.4687-15.4688 8.54306-15.4688-9.99273e-05-15.4687-8.54326-8.54306-15.4688 9.99273e-05-15.4688 8.54326-15.4687 15.4688-8.54306 15.4688 9.99273e-05 15.4687 8.54326 8.54306 15.4688-9.99273e-05 15.4688Z" fill="#000000" fill-rule="nonzero" fill-opacity="1" transform="matrix(1 0 0 -1 3985 817.001)"/><path d="M3.33091e-05-5.15625 111.732-5.15553 111.732 5.15697-3.33091e-05 5.15625ZM-9.99273e-05 15.4688C-8.54326 15.4687-15.4688 8.54306-15.4688-9.99273e-05-15.4687-8.54326-8.54306-15.4688 9.99273e-05-15.4688 8.54326-15.4687 15.4688-8.54306 15.4688 9.99273e-05 15.4687 8.54326 8.54306 15.4688-9.99273e-05 15.4688Z" fill="#000000" fill-rule="nonzero" fill-opacity="1" transform="matrix(1 0 0 -1 3654 817.001)"/><path d="M3.33091e-05-5.15625 111.732-5.15553 111.732 5.15697-3.33091e-05 5.15625ZM-9.99273e-05 15.4688C-8.54326 15.4687-15.4688 8.54306-15.4688-9.99273e-05-15.4687-8.54326-8.54306-15.4688 9.99273e-05-15.4688 8.54326-15.4687 15.4688-8.54306 15.4688 9.99273e-05 15.4687 8.54326 8.54306 15.4688-9.99273e-05 15.4688Z" fill="#000000" fill-rule="nonzero" fill-opacity="1" transform="matrix(1 0 0 -1 3764 817.001)"/><path d="M3.33091e-05-5.15625 111.732-5.15553 111.732 5.15697-3.33091e-05 5.15625ZM-9.99273e-05 15.4688C-8.54326 15.4687-15.4688 8.54306-15.4688-9.99273e-05-15.4687-8.54326-8.54306-15.4688 9.99273e-05-15.4688 8.54326-15.4687 15.4688-8.54306 15.4688 9.99273e-05 15.4687 8.54326 8.54306 15.4688-9.99273e-05 15.4688Z" fill="#000000" fill-rule="nonzero" fill-opacity="1" transform="matrix(-1.83697e-16 -1 -1 1.83697e-16 4097 1038.73)"/><path d="M3.33091e-05-5.15625 111.732-5.15553 111.732 5.15697-3.33091e-05 5.15625ZM-9.99273e-05 15.4688C-8.54326 15.4687-15.4688 8.54306-15.4688-9.99273e-05-15.4687-8.54326-8.54306-15.4688 9.99273e-05-15.4688 8.54326-15.4687 15.4688-8.54306 15.4688 9.99273e-05 15.4687 8.54326 8.54306 15.4688-9.99273e-05 15.4688ZM111.732-15.468C120.276-15.468 127.201-8.54233 127.201 0.000821712 127.201 8.54398 120.275 15.4695 111.732 15.4695 103.189 15.4694 96.2635 8.54378 96.2635 0.000621857 96.2636-8.54253 103.189-15.4681 111.732-15.468Z" fill="#000000" fill-rule="nonzero" fill-opacity="1" transform="matrix(-1.83697e-16 -1 -1 1.83697e-16 4097 928.732)"/><path d="M3.33091e-05-5.15625 111.732-5.15553 111.732 5.15697-3.33091e-05 5.15625ZM-9.99273e-05 15.4688C-8.54326 15.4687-15.4688 8.54306-15.4688-9.99273e-05-15.4687-8.54326-8.54306-15.4688 9.99273e-05-15.4688 8.54326-15.4687 15.4688-8.54306 15.4688 9.99273e-05 15.4687 8.54326 8.54306 15.4688-9.99273e-05 15.4688Z" fill="#000000" fill-rule="nonzero" fill-opacity="1" transform="matrix(-1.83697e-16 -1 -1 1.83697e-16 4097 1259.73)"/><path d="M3.33091e-05-5.15625 111.732-5.15553 111.732 5.15697-3.33091e-05 5.15625ZM-9.99273e-05 15.4688C-8.54326 15.4687-15.4688 8.54306-15.4688-9.99273e-05-15.4687-8.54326-8.54306-15.4688 9.99273e-05-15.4688 8.54326-15.4687 15.4688-8.54306 15.4688 9.99273e-05 15.4687 8.54326 8.54306 15.4688-9.99273e-05 15.4688Z" fill="#000000" fill-rule="nonzero" fill-opacity="1" transform="matrix(-1.83697e-16 -1 -1 1.83697e-16 4097 1149.73)"/><path d="M1525.72 216.146 1525.72 1866.14" stroke="#000000" stroke-width="4.58333" stroke-linecap="butt" stroke-linejoin="round" stroke-miterlimit="10" stroke-opacity="1" fill="none" fill-rule="evenodd"/><path d="M1973.23 216.146 1973.23 1866.14" stroke="#000000" stroke-width="4.58333" stroke-linecap="butt" stroke-linejoin="round" stroke-miterlimit="10" stroke-opacity="1" fill="none" fill-rule="evenodd"/><path d="M2420.74 216.146 2420.74 1866.14" stroke="#000000" stroke-width="4.58333" stroke-linecap="butt" stroke-linejoin="round" stroke-miterlimit="10" stroke-opacity="1" fill="none" fill-rule="evenodd"/><path d="M1078.21 628.646 2868.25 628.646" stroke="#000000" stroke-width="4.58333" stroke-linecap="butt" stroke-linejoin="round" stroke-miterlimit="10" stroke-opacity="1" fill="none" fill-rule="evenodd"/><path d="M1078.21 1041.15 2868.25 1041.15" stroke="#000000" stroke-width="4.58333" stroke-linecap="butt" stroke-linejoin="round" stroke-miterlimit="10" stroke-opacity="1" fill="none" fill-rule="evenodd"/><path d="M1078.21 1453.64 2868.25 1453.64" stroke="#000000" stroke-width="4.58333" stroke-linecap="butt" stroke-linejoin="round" stroke-miterlimit="10" stroke-opacity="1" fill="none" fill-rule="evenodd"/><g><text fill="#000000" fill-opacity="1" font-family="Arial,Arial_MSFontService,sans-serif" font-style="normal" font-variant="normal" font-weight="400" font-stretch="normal" font-size="165" text-anchor="start" direction="ltr" writing-mode="lr-tb" unicode-bidi="normal" text-decoration="none" transform="matrix(1 0 0 1 2453.74 1630)">M</text></g><text fill="#000000" fill-opacity="1" font-family="Arial,Arial_MSFontService,sans-serif" font-style="normal" font-variant="normal" font-weight="400" font-stretch="normal" font-size="110" text-anchor="start" direction="ltr" writing-mode="lr-tb" unicode-bidi="normal" text-decoration="none" transform="matrix(1 0 0 1 2591.24 1580)">t</text><path d="M1766 1230.84 1909 1230.84 1909 1241.16 1766 1241.16ZM1766 1251.47C1757.46 1251.47 1750.53 1244.54 1750.53 1236 1750.53 1227.46 1757.46 1220.53 1766 1220.53 1774.54 1220.53 1781.47 1227.46 1781.47 1236 1781.47 1244.54 1774.54 1251.47 1766 1251.47Z" fill="#000000" fill-rule="nonzero" fill-opacity="1"/><path d="M1911.37 1231.42 2008.43 1281.65 2003.69 1290.81 1906.63 1240.58ZM1901.89 1249.74C1894.3 1245.81 1891.34 1236.48 1895.26 1228.89 1899.19 1221.3 1908.52 1218.34 1916.11 1222.26 1923.7 1226.19 1926.66 1235.52 1922.74 1243.11 1918.81 1250.7 1909.48 1253.66 1901.89 1249.74Z" fill="#000000" fill-rule="nonzero" fill-opacity="1"/><path d="M0 0 137.026 87.0519" stroke="#000000" stroke-width="10.3125" stroke-linecap="butt" stroke-linejoin="miter" stroke-miterlimit="8" stroke-opacity="1" fill="none" fill-rule="evenodd" transform="matrix(1 0 0 -1 1459 1350.05)"/><path d="M0.780796-5.09679 173.236 21.3223 171.675 31.5159-0.780796 5.09679ZM-2.34239 15.2904C-10.787 13.9967-16.584 6.10225-15.2904-2.34239-13.9967-10.787-6.10225-16.584 2.34239-15.2904 10.787-13.9967 16.584-6.10225 15.2904 2.34239 13.9967 10.787 6.10225 16.584-2.34239 15.2904Z" fill="#000000" fill-rule="nonzero" fill-opacity="1" transform="matrix(1 0 0 -1 1596 1262.42)"/><path d="M4.06436-3.17299 92.0719 109.558 83.9432 115.904-4.06436 3.17299ZM-12.1931 9.51896C-17.4503 2.7849-16.253-6.93592-9.51896-12.1931-2.7849-17.4503 6.93591-16.253 12.1931-9.51896 17.4503-2.7849 16.253 6.93592 9.51896 12.1931 2.7849 17.4503-6.93591 16.253-12.1931 9.51896Z" fill="#000000" fill-rule="nonzero" fill-opacity="1" transform="matrix(1 0 0 -1 1491 986.731)"/><path d="M4.1818-3.01653 81.3471 103.957 72.9835 109.99-4.1818 3.01653ZM-12.5454 9.04959C-17.5434 2.12095-15.9782-7.54746-9.04959-12.5454-2.12095-17.5434 7.54746-15.9782 12.5454-9.04959 17.5434-2.12095 15.9782 7.54746 9.04959 12.5454 2.12095 17.5434-7.54746 15.9782-12.5454 9.04959Z" fill="#000000" fill-rule="nonzero" fill-opacity="1" transform="matrix(1 0 0 -1 1579 869.974)"/><path d="M5.14209-0.381868 19.5969 194.261 9.31273 195.025-5.14209 0.381868ZM-15.4263 1.1456C-16.059-7.37409-9.6653-14.7936-1.1456-15.4263 7.37409-16.059 14.7936-9.6653 15.4263-1.1456 16.059 7.37409 9.6653 14.7936 1.1456 15.4263-7.37409 16.059-14.7936 9.6653-15.4263 1.1456Z" fill="#000000" fill-rule="nonzero" fill-opacity="1" transform="matrix(1 0 0 -1 1452 1349.64)"/><path d="M5.09174-0.813079 32.0457 167.981 21.8622 169.607-5.09174 0.813079ZM-15.2752 2.43924C-16.6224-5.99704-10.8755-13.9281-2.43924-15.2752 5.99704-16.6224 13.9281-10.8755 15.2752-2.43924 16.6224 5.99704 10.8755 13.9281 2.43924 15.2752-5.99704 16.6224-13.9281 10.8755-15.2752 2.43924Z" fill="#000000" fill-rule="nonzero" fill-opacity="1" transform="matrix(1 0 0 -1 1464 1154.79)"/><path d="M2.14681-4.68808 132.968 55.219 128.675 64.5951-2.14681 4.68808ZM-6.44044 14.0642C-14.2079 10.5073-17.6212 1.32703-14.0642-6.44044-10.5073-14.2079-1.32703-17.6212 6.44044-14.0642 14.2079-10.5073 17.6212-1.32703 14.0642 6.44044 10.5073 14.2079 1.32703 17.6212-6.44044 14.0642Z" fill="#000000" fill-rule="nonzero" fill-opacity="1" transform="matrix(1 0 0 -1 2099 788.907)"/><path d="M1.81761-4.82527 214.048 75.1189 210.413 84.7694-1.81761 4.82527ZM-5.45283 14.4758C-13.4476 11.4643-17.4873 2.54194-14.4758-5.45283-11.4643-13.4476-2.54194-17.4873 5.45283-14.4758 13.4476-11.4643 17.4873-2.54194 14.4758 5.45283 11.4643 13.4476 2.54194 17.4873-5.45283 14.4758Z" fill="#000000" fill-rule="nonzero" fill-opacity="1" transform="matrix(1 0 0 -1 1892 869.944)"/><path d="M1660.28 761.025 1771.96 853.332 1765.39 861.281 1653.71 768.974ZM1647.14 776.923C1640.56 771.48 1639.63 761.73 1645.08 755.145 1650.52 748.56 1660.27 747.634 1666.85 753.077 1673.44 758.52 1674.37 768.27 1668.92 774.855 1663.48 781.44 1653.73 782.366 1647.14 776.923Z" fill="#000000" fill-rule="nonzero" fill-opacity="1"/><path d="M1766.65 852.885 1892.24 868.904 1890.93 879.134 1765.35 863.115ZM1764.04 873.344C1755.57 872.263 1749.57 864.517 1750.66 856.043 1751.74 847.568 1759.48 841.575 1767.96 842.656 1776.43 843.737 1782.43 851.483 1781.34 859.957 1780.26 868.432 1772.52 874.425 1764.04 873.344Z" fill="#000000" fill-rule="nonzero" fill-opacity="1"/><path d="M4.90067-1.60323 49.1749 133.732 39.3736 136.939-4.90067 1.60323ZM-14.702 4.80969C-17.3583-3.31001-12.9294-12.0457-4.80969-14.702 3.31001-17.3583 12.0457-12.9294 14.702-4.80969 17.3583 3.31001 12.9294 12.0457 4.80969 14.702-3.31001 17.3583-12.0457 12.9294-14.702 4.80969Z" fill="#000000" fill-rule="nonzero" fill-opacity="1" transform="matrix(1 0 0 -1 2059 1092.34)"/><path d="M4.5105-2.49846 128.271 220.928 119.25 225.925-4.5105 2.49846ZM-13.5315 7.49537C-17.6711 0.0221272-14.9686-9.39192-7.49537-13.5315-0.0221272-17.6711 9.39193-14.9686 13.5315-7.49537 17.6711-0.0221272 14.9686 9.39192 7.49537 13.5315 0.0221272 17.6711-9.39193 14.9686-13.5315 7.49537ZM137.292 215.931C141.432 223.405 138.729 232.819 131.256 236.958 123.783 241.098 114.369 238.395 110.229 230.922 106.089 223.449 108.792 214.035 116.265 209.895 123.738 205.756 133.152 208.458 137.292 215.931Z" fill="#000000" fill-rule="nonzero" fill-opacity="1" transform="matrix(1 0 0 -1 2104 956.427)"/><path d="M3.94799-3.31667 75.9984 82.4483 68.1024 89.0817-3.94799 3.31667ZM-11.844 9.95001C-17.3392 3.40876-16.4913-6.34873-9.95001-11.844-3.40876-17.3392 6.34873-16.4913 11.844-9.95001 17.3392-3.40876 16.4913 6.34873 9.95001 11.844 3.40876 17.3392-6.34873 16.4913-11.844 9.95001Z" fill="#000000" fill-rule="nonzero" fill-opacity="1" transform="matrix(1 0 0 -1 2006 1286.77)"/><path d="M2074.18 1201.82 2053.93 1092.94 2064.07 1091.06 2084.32 1199.94ZM2094.46 1198.05C2096.02 1206.45 2090.48 1214.52 2082.08 1216.09 2073.68 1217.65 2065.61 1212.11 2064.05 1203.71 2062.48 1195.31 2068.03 1187.23 2076.43 1185.67 2084.82 1184.11 2092.9 1189.65 2094.46 1198.05Z" fill="#000000" fill-rule="nonzero" fill-opacity="1"/><path d="M1847.7 770.296 1857.43 755.211 1875.17 729.208 1893.49 703.805 1912.36 679.003 1931.78 654.806 1951.74 631.217 1972.2 608.24 1993.18 585.876 2014.64 564.13 2036.58 543.003 2058.99 522.5 2081.84 502.623 2105.13 483.376 2128.85 464.76 2152.97 446.779 2177.49 429.437 2202.39 412.735 2227.66 396.678 2253.29 381.267 2279.26 366.507 2305.56 352.399 2332.17 338.947 2359.08 326.154 2386.28 314.023 2413.76 302.555 2441.5 291.756 2469.48 281.627 2497.7 272.172 2526.14 263.392 2554.79 255.292 2583.63 247.875 2612.65 241.142 2641.84 235.097 2671.18 229.744 2700.66 225.084 2730.27 221.122 2759.99 217.859 2789.81 215.299 2819.72 213.445 2849.7 212.299 2879.74 211.865 2909.83 212.146 2939.94 213.144 2970.08 214.863 3000.22 217.306 3030.35 220.474 3060.47 224.372 3090.54 229.003 3120.57 234.369 3150.54 240.473 3180.43 247.318 3210.23 254.908 3239.93 263.244 3269.51 272.331 3298.97 282.171 3328.28 292.766 3357.43 304.121 3386.42 316.237 3415.22 329.117 3443.82 342.766 3472.22 357.185 3500.38 372.377 3528.32 388.346 3555.99 405.091 3580.22 420.54 3604.06 436.51 3627.52 452.995 3650.59 469.987 3673.26 487.48 3695.51 505.464 3717.35 523.934 3738.76 542.881 3759.74 562.299 3780.27 582.178 3800.35 602.512 3819.97 623.294 3839.13 644.515 3857.8 666.169 3875.99 688.248 3893.65 710.682 3882.84 719.184 3865.24 696.811 3865.33 696.932 3847.24 674.973 3847.34 675.091 3828.76 653.555 3828.87 653.671 3809.82 632.564 3809.92 632.678 3790.41 612.008 3790.51 612.119 3770.54 591.895 3770.65 592.003 3750.23 572.231 3750.34 572.337 3729.48 553.024 3729.59 553.128 3708.29 534.282 3708.41 534.383 3686.69 516.013 3686.81 516.111 3664.67 498.223 3664.79 498.318 3642.25 480.92 3642.37 481.012 3619.43 464.111 3619.55 464.201 3596.22 447.805 3596.35 447.892 3572.63 432.008 3572.76 432.092 3548.67 416.728 3548.8 416.813 3521.27 400.154 3521.42 400.24 3493.63 384.356 3493.78 384.439 3465.76 369.327 3465.91 369.406 3437.67 355.064 3437.82 355.139 3409.37 341.564 3409.53 341.635 3380.88 328.823 3381.04 328.89 3352.21 316.839 3352.36 316.902 3323.37 305.609 3323.52 305.669 3294.37 295.13 3294.53 295.186 3265.24 285.399 3265.4 285.45 3235.97 276.413 3236.13 276.46 3206.59 268.169 3206.76 268.212 3177.12 260.664 3177.28 260.703 3147.55 253.895 3147.71 253.93 3117.91 247.859 3118.07 247.89 3088.21 242.553 3088.37 242.58 3058.45 237.975 3058.62 237.998 3028.67 234.121 3028.83 234.14 2998.86 230.989 2999.03 231.004 2969.05 228.575 2969.21 228.586 2939.24 226.877 2939.41 226.884 2909.45 225.891 2909.62 225.895 2879.69 225.615 2879.86 225.615 2849.98 226.046 2850.14 226.042 2820.33 227.182 2820.49 227.173 2790.75 229.018 2790.91 229.005 2761.25 231.552 2761.41 231.536 2731.85 234.781 2732.02 234.761 2702.57 238.702 2702.73 238.678 2673.41 243.313 2673.57 243.285 2644.39 248.609 2644.55 248.578 2615.52 254.59 2615.68 254.555 2586.82 261.25 2586.98 261.211 2558.29 268.588 2558.45 268.546 2529.96 276.601 2530.12 276.555 2501.84 285.286 2501.99 285.235 2473.93 294.639 2474.09 294.584 2446.26 304.657 2446.41 304.599 2418.83 315.339 2418.98 315.277 2391.66 326.68 2391.81 326.614 2364.76 338.678 2364.91 338.608 2338.15 351.33 2338.3 351.256 2311.83 364.633 2311.98 364.555 2285.83 378.584 2285.98 378.502 2260.16 393.18 2260.3 393.095 2234.82 408.418 2234.97 408.329 2209.84 424.295 2209.98 424.202 2185.22 440.809 2185.36 440.712 2160.98 457.956 2161.12 457.855 2137.13 475.733 2137.27 475.629 2113.69 494.138 2113.82 494.03 2090.67 513.167 2090.8 513.055 2068.07 532.818 2068.2 532.703 2045.93 553.088 2046.06 552.969 2024.24 573.974 2024.37 573.851 2003.02 595.473 2003.15 595.346 1982.29 617.581 1982.41 617.451 1962.06 640.297 1962.18 640.164 1942.34 663.618 1942.45 663.482 1923.14 687.54 1923.25 687.401 1904.49 712.061 1904.59 711.918 1886.38 737.178 1886.48 737.032 1868.84 762.888 1868.93 762.74 1859.25 777.75ZM1899.17 758.534 1846.08 785.488 1848.75 726.007 1848.75 726.007C1848.92 722.214 1852.13 719.277 1855.92 719.447 1859.72 719.618 1862.65 722.831 1862.48 726.624L1860.34 774.331 1850.36 767.892 1892.94 746.274 1892.94 746.274C1896.33 744.555 1900.47 745.906 1902.19 749.292 1903.91 752.677 1902.55 756.815 1899.17 758.534Z" fill="#156082" fill-rule="nonzero" fill-opacity="1"/><text fill="#215F9A" fill-opacity="1" font-family="Arial,Arial_MSFontService,sans-serif" font-style="normal" font-variant="normal" font-weight="400" font-stretch="normal" font-size="165" text-anchor="start" direction="ltr" writing-mode="lr-tb" unicode-bidi="normal" text-decoration="none" transform="matrix(1 0 0 1 2533.06 195)">Ψ</text></g></g></svg>